<?xml version="1.0" encoding="UTF-8" standalone="no"?>
<!-- Created with Inkscape (http://www.inkscape.org/) -->

<svg
   xmlns:dc="http://purl.org/dc/elements/1.1/"
   xmlns:cc="http://creativecommons.org/ns#"
   xmlns:rdf="http://www.w3.org/1999/02/22-rdf-syntax-ns#"
   xmlns:svg="http://www.w3.org/2000/svg"
   xmlns="http://www.w3.org/2000/svg"
   xmlns:xlink="http://www.w3.org/1999/xlink"
   version="1.1"
   width="100%"
   height="100%"
   viewBox="0 0 100 100"
   id="svg2">
  <metadata
     id="metadata59">
    <rdf:RDF>
      <cc:Work
         rdf:about="">
        <dc:format>image/svg+xml</dc:format>
        <dc:type
           rdf:resource="http://purl.org/dc/dcmitype/StillImage" />
        <dc:title></dc:title>
      </cc:Work>
    </rdf:RDF>
  </metadata>
  <style
     type="text/css"
     id="style4" />
  <g transform="scale(0.66666667,0.66666667)">
    <circle
       cx="45"
       cy="45"
       r="45"
       id="circle7"
       style="opacity:0.5;fill:#ffee8a;stroke-width:0;stroke-opacity:0" />
    <circle
       cx="45"
       cy="45"
       r="39"
       id="circle9"
       style="opacity:0.95;fill:#ffee8a;stroke-width:0;stroke-opacity:0" />
    <circle
       cx="45"
       cy="45"
       r="31.5"
       id="circle11"
       style="stroke-width:2;fill:#ffaf22;stroke:#ffaf22;stroke-miterlimit:10" />
  </g>
  <g transform="translate(5,25)">
    <path
       d="M 87.8,26.9 C 87,26.1 87.4,25.6 87.2,25 86.8,24.2 86.1,24 85.6,23.7 84.8,23.3 84.1,23.5 83.3,23.3 82,22.9 81.8,20.4 80.6,19.5 79,18.4 80.1,16.4 78.6,15.2 77.8,14.6 77.3,14.9 76.5,14.7 75.7,14.5 74.8,13.9 74,13.5 72.5,12.8 72.9,11.6 71.9,9.5 71.2,8 69.4,6.5 67.9,5.6 67.3,5.3 66.7,5.1 66.1,4.9 65.4,4.7 65.5,4.2 65.2,3.7 64.3,2.7 63,2.2 61.6,2.9 61,3.2 60.7,3.9 60.1,4.2 59.6,4.5 58.7,4.4 58.2,4 51.5,-1.7 43.3,-1.2 41.9,4.2 40.1,5.6 38,6.4 37.3,10.8 35.5,9.7 34.6,11.1 34.5,11 c 0,0 -1.1,-0.5 -2.3,-0.2 -1.6,0.4 -2.8,1.5 -3,3.1 -0.1,0.6 0.1,1.3 -0.3,1.5 -0.5,0.4 -1.2,0.5 -1.7,0.2 -0.7,-0.4 -1.3,-0.6 -2.1,-0.3 -0.8,0.3 -1.5,0.3 -2.3,-0.1 -0.6,-0.4 -1.7,-1 -4.2,-0.5 -1.5,0.3 -3,0.5 -3.8,1.9 -1.6,3.1 -1.9,1.8 -3.6,3.5 -0.4,0.5 -0.7,1.6 -1.3,1.8 -0.6,0.2 -1.1,0.2 -1.6,0.7 -0.6,0.5 -1.5,0.1 -2.2,0.6 -0.3,0.2 -0.2,0.3 -0.7,0.8 -0.5,0.4 -1,0.7 -1.4,1.2 -0.7,0.6 -1.3,1.3 -1.7,2.2 -0.3,0.7 -0.4,1.6 -1,2.1 -0.7,0.6 -0.4,1 -0.7,1.8 -0.2,0.3 -0.5,0.4 -0.7,0.8 0.1,0.4 0.1,1 0.1,1.6 0.1,4.4 2.1,7 2.8,7.3 0.6,0.3 0.6,1 1.1,1.3 0.3,0.1 0.7,0 1,0.2 0.4,0.2 0.6,0.6 0.9,0.8 0.7,0.6 1.6,0.4 2.5,0.3 1.2,-0.1 1.9,0.5 3,0.8 1.9,0.6 4.8,0.9 6.8,1 20.1,0.7 43.4,0.9 62.6,-0.2 2.4,-0.1 4,-1 5.4,-2.2 0.8,-0.6 2.5,-2 3.4,-6.2 0.9,-4.2 -1.3,-9.5 -1.7,-9.9 z"
       id="path14"
       style="fill:#999999" />
    <g
       id="g16"
       style="fill:#424242">
      <path
         d="m 89.8,34 c 0,-0.9 -0.2,-1.8 -0.4,-2.6 -0.5,-0.7 -2,-0.2 -2.7,-0.2 -1.7,0 -1.8,-1.1 -2.3,-2.4 -0.4,-1.1 -0.9,-2.1 -1.9,-2.7 -0.6,-0.4 -2.4,-1.3 -2.9,-0.6 -0.4,0.5 -0.3,0.9 -1,1.2 -0.8,0.4 -1.7,0.2 -2.4,-0.2 -1.3,-0.7 -2.5,-1.9 -4,-2.2 -0.9,-0.2 -2,-0.4 -2.8,0.2 -0.6,0.4 -1,0.5 -1.7,0.2 -1.3,-0.6 -2.6,-2.3 -3.1,-3.6 -0.5,-1.6 -0.6,-3 -2.3,-3.9 -0.9,-0.2 -1.7,0.1 -2.5,-0.1 -2.1,-0.6 -3.6,-2.5 -5.8,-2.9 -1.8,-0.3 -3.6,0.4 -5,1.5 -0.8,0.7 -2.1,2 -1.8,3.2 2.3,-2.1 5.3,-3.8 8.3,-2 1,0.6 2.1,1.2 3,1.9 0.7,0.5 1.5,1.1 1.8,1.9 0.4,1 -0.3,1.9 -0.4,2.9 -0.1,0.7 0.2,1.3 0.2,2 0,0.5 -0.3,1 -0.5,1.5 -0.1,0.4 -0.2,1.2 -0.7,1.3 -0.2,0 -0.5,-0.2 -0.8,-0.2 -0.3,0 -0.4,0.2 -0.6,0.4 -0.3,0.4 -0.5,0.9 -0.9,1.1 -0.7,0.4 -1.4,0 -2.2,0.5 -0.7,0.4 -1.3,1.2 -2.1,1 -0.4,-0.1 -0.7,-0.3 -1.1,-0.4 -0.5,-0.1 -0.9,0.3 -1.4,0.4 -0.2,0.1 -0.4,0.1 -0.5,0.1 -0.2,0.1 -0.7,0.5 -0.8,0.5 -0.3,0 -0.3,-0.2 -0.4,-0.5 -0.1,-0.3 0,-0.5 -0.3,-0.7 -0.4,-0.3 -0.8,0.2 -1.2,-0.3 -0.2,-0.2 -0.1,-0.6 -0.3,-0.8 -0.3,-0.3 -1,-0.3 -1.3,-0.3 -0.4,0 -1.1,0 -1.3,0.4 -0.2,0.4 0.2,0.9 -0.1,1.2 -0.4,-0.5 -1.3,-0.2 -1.9,-0.6 0.4,-0.3 0.2,-1 -0.1,-1.3 -0.5,-0.4 -0.6,-0.1 -0.8,0.2 -0.1,0.1 -0.1,0.3 -0.3,0.4 -0.2,0.1 -0.4,0 -0.6,0.1 -0.3,0.3 0,0.9 -0.2,1.3 -0.2,0.5 -0.7,0.8 -1,1.2 -0.3,0.5 -0.5,1.1 -1.1,1.3 -1.3,0.7 -2.2,-1 -2.6,-2 -0.2,-0.6 0.1,-1.3 -0.1,-1.9 -0.1,-0.7 -0.5,-0.6 -1.1,-0.7 -0.6,-0.1 -1.2,-0.4 -1.6,-0.8 -0.4,-0.4 -0.5,-0.9 -1.1,-1.2 -0.9,-0.4 -2.2,-0.3 -2.8,0.6 -0.7,1.1 -0.4,2.7 -1.2,3.8 -0.7,0.9 -1.9,0.9 -3,0.9 -0.2,0 -0.4,0 -0.5,0 -0.1,-0.1 -0.2,-0.3 -0.3,-0.3 -0.4,-0.1 -0.5,0.2 -0.8,0.4 -1,0.7 -1.3,-1.1 -2.5,-0.7 -1,0.4 -1.5,2 -2,2.9 -0.6,0.9 -1.2,2 -2.2,2.5 -0.4,0.2 -0.7,0.3 -1.1,0.2 -0.2,-0.1 -0.3,-0.2 -0.6,-0.2 -0.3,0.1 -0.5,0.5 -0.7,0.7 -0.3,0.5 -0.7,0.9 -1.1,1.3 -1.7,1.5 -3.9,1.3 -5.9,0.7 -1.6,-0.5 -3,-1.3 -4.4,-2.1 -0.3,-0.2 -1.4,-1 -1.7,-0.6 0.4,1.3 1,2.8 2,3.8 0.4,0.3 0.6,0.6 0.9,1 0.1,0.1 0.2,0.3 0.3,0.4 0.4,0.3 0.8,0.1 1.2,0.3 h 0 c 0.5,0.3 0.8,0.9 1.4,1.1 0.5,0.5 1.5,0.1 2.1,0 h 0 c 0.2,0 0.3,0 0.5,0 h 0 c 0.1,0 0.3,0 0.4,0.1 l 0,0 c 0,0 0,0 0,0 1.2,0.3 2.3,0.9 3.5,1.1 2.8,0.6 5.6,0.6 8.4,0.7 2.9,0.1 5.7,0.2 8.6,0.2 6.2,0.1 12.3,0.2 18.5,0.2 5.8,0 11.6,-0.1 17.5,-0.2 3,-0.1 6,-0.2 9,-0.3 2.5,-0.1 5.3,0 7.8,-0.6 4.9,-1.1 7.6,-6.1 7.4,-10.7 0,-0.4 0,0.3 0,0 z"
         id="path18"
         style="opacity:0.13999999" />
      <path
         d="m 89.8,33.4 c 0,0.7 -3,0.6 -3.5,0.5 -0.6,-0.1 -0.9,-0.3 -1.1,-0.8 -0.1,-0.2 -0.1,-0.7 -0.5,-0.8 -0.3,0 -0.4,0.4 -0.6,0.4 C 83.5,32.6 83.9,31.4 83.8,31.1 83.7,30.5 83.5,30.9 83.2,30.4 82.9,30 83,29.2 82.5,29 82.3,28.9 82,29 81.7,29 81.2,29 80.8,28.7 80.3,28.6 79,28.3 78.1,30.2 76.8,29.8 76.2,29.6 75.5,28.8 75,28.5 74.4,28.1 73.6,28.2 73.1,27.7 72.1,27 71.4,24.9 70,26.1 69.5,26.5 69.2,27 68.5,27 c -0.6,-0.1 -0.9,-0.5 -1.3,-0.8 -1.1,-1.2 -2,-2.6 -2.9,-3.9 -0.5,-0.6 -1.5,-2.6 -2.4,-2.7 0.1,0.9 0.4,2.2 -0.7,3.8 0.1,0.7 0.3,1.4 0.5,2.1 0.1,0.4 0.5,1.2 0.4,1.6 -0.1,0.3 -0.3,0.3 -0.5,0.5 -0.2,0.3 -0.2,0.8 -0.2,1.1 0,0.3 0.4,1.8 0.2,2 -0.4,0.2 -1.9,-1.5 -2.5,-1.4 -0.5,0 -0.7,0.4 -0.7,0.9 0,0.6 0.6,0.8 0.8,1.3 0.7,1.3 -1.4,1.4 -2,0.6 -0.2,-0.2 -0.5,-1.3 -0.8,-1.3 -0.4,-0.1 -0.6,0.8 -0.8,1 -0.7,0.9 -2,1.7 -3.2,1.5 -0.4,0 -0.7,-0.2 -1.1,-0.3 -0.6,-0.1 -1.2,0.2 -1.8,0.3 -0.7,0.1 -1.5,0.4 -2.2,0.3 C 46.6,33.4 46,32.7 45.3,32.7 45.2,32.9 45.1,33 45,33 44.8,32.9 44.7,32.7 44.7,32.5 43.8,31.9 42,30.8 41,31.8 c -0.8,0.7 -0.6,1.5 -1.8,1.8 -0.9,0.2 -2.3,0.7 -3.2,0.2 -1,-0.6 -0.8,-2 -1.4,-2.8 0.3,-0.6 -1,-0.4 -1.2,-0.4 -0.5,-0.1 -1,-0.4 -1.5,-0.3 -0.7,0.2 -0.4,1.1 -0.6,1.6 -0.2,0.6 -0.6,1 -0.7,1.6 -0.1,0.5 -0.3,0.7 -0.8,0.9 -1,0.4 -2.2,0.1 -3.1,-0.2 -0.4,-0.1 -0.8,-0.3 -1.2,-0.5 -0.8,-0.5 -1.3,-0.5 -2.2,-0.2 -0.7,0.2 -1.5,0.2 -2.1,0.5 -0.5,0.3 -0.6,1 -1.2,1.2 -0.2,0.1 -0.6,0.1 -0.8,-0.1 -0.2,-0.1 0,-0.4 -0.4,-0.4 -0.3,0 -0.5,0.6 -0.6,0.8 -0.2,0.4 -0.3,0.9 -0.6,1.2 -0.3,0.4 -0.2,0.1 -0.5,0.2 -0.7,0.2 -1.6,0.6 -2.3,0.9 -0.8,0.3 -1.3,1.2 -2,1.8 -1.1,0.9 -2.5,1.2 -3.9,0.9 C 7.1,39.9 5.3,39.3 3.5,38.7 2.9,39 1,38.3 1.4,39.2 c 0.6,1 1.4,1.7 2.1,2.6 0.4,0.6 0.9,0.3 1.5,0.7 0.6,0.4 0.9,1 1.7,1.1 0.6,0.1 1.3,-0.1 1.9,-0.1 0.8,0 1.5,0.4 2.2,0.7 1.4,0.5 3,0.7 4.5,0.9 3.4,0.4 6.9,0.4 10.3,0.5 3.5,0.1 7.1,0.2 10.6,0.2 14.2,0.2 28.4,0.1 42.5,-0.6 1.7,-0.1 3.5,-0.1 5.1,-0.8 1.1,-0.5 2.1,-1.2 3,-2.1 1.9,-1.9 2.9,-4.9 3,-7.5 0,-0.5 0,-0.9 0,-1.4 z m -6.6,-2.1 c 0,0 0,0 0,0 l 0,0 c 0,0 0,0 0,0 z"
         id="path20"
         style="opacity:0.16000001" />
      <path
         d="M 88.5,34.6 C 88.3,33.2 86.4,34 85.6,33.7 85.3,33.6 85.2,33.2 84.8,33 84.1,32.8 83.1,33.5 82.6,33.8 82.2,33.1 82,32.3 81.9,31.5 81.8,31 82,30.9 81.6,31.1 c -0.2,0.1 -0.3,0.5 -0.6,0.5 -0.2,0 -0.3,0 -0.5,-0.1 -0.3,-0.2 -0.5,-0.6 -0.8,-0.7 -0.4,-0.2 -0.9,0.1 -1.3,0.1 -0.6,0 -1.2,-0.2 -1.8,-0.3 -0.2,0 -0.8,-0.3 -1,-0.1 -0.2,0.2 0,0.7 -0.4,0.7 -0.3,0 -0.7,-1.1 -0.8,-1.3 -0.3,-0.5 -0.6,-1.2 -1,-1.5 -0.8,-0.6 -1.3,0.5 -1.9,0.9 -0.5,0.4 -1.5,0.9 -1.4,-0.1 0.1,-0.8 0.3,-1.6 -0.9,-1.3 -1,0.8 -2.1,0.5 -3,-0.3 -0.1,-0.1 -1.2,-1.7 -1.3,-1.6 0.5,-0.1 -0.8,4.5 -0.9,4.8 -0.1,0.2 -0.2,0.5 -0.3,0.6 -0.1,0.1 -0.2,-0.3 -0.4,-0.1 -0.3,0.3 0.2,1.6 0.1,2 -0.1,0.3 -0.1,0.4 -0.4,0.4 -0.2,0 -0.6,-0.1 -0.9,-0.2 -0.4,-0.1 -0.7,-0.3 -1.1,-0.4 -1.2,-0.3 -0.2,1.9 -1.4,1.8 -0.5,0 -1,-0.9 -1.5,-0.5 -0.3,0.3 -0.1,0.9 -0.2,1.2 -0.3,1.1 -1.9,0.4 -2.6,0.2 -0.8,-0.2 -0.9,0 -1.6,0.3 -0.5,0.3 -0.8,0.2 -1.3,-0.2 -0.6,-0.5 -0.9,-0.6 -1.7,-0.6 -1.1,0 -2,-0.7 -3.1,-0.6 0.5,-0.6 -1.7,-1.3 -2.1,-1.2 -0.8,0.1 -0.9,0.3 -1.5,-0.3 -0.5,-0.5 -1.2,-0.9 -1.9,-0.8 -1.1,0.1 -1.4,1.4 -2,2.1 -1,1 -2.7,1.7 -3.9,0.8 -1,-0.7 -1.2,-2.1 -2.2,-2.8 -0.9,-0.6 -1.9,-0.1 -1.6,1 0.1,0.3 0.2,0.6 0.1,0.9 -0.1,0.2 -0.6,0.3 -0.7,0.5 -0.3,0.3 -0.6,0.7 -1,0.8 -0.6,0.2 -1.2,-0.3 -1.8,-0.4 -0.7,-0.1 -1.2,0.4 -1.8,0.1 -0.6,-0.3 -1.3,-0.3 -1.9,-0.8 -0.7,-0.5 -1.2,-0.6 -2,-0.3 -0.9,0.3 -1.5,0.9 -2.2,1.5 -0.8,0.6 -1.7,0.5 -2.6,0.5 -0.6,1.5 -1.9,2.2 -3.3,2.7 -0.1,0 -0.4,0.1 -0.5,0.2 -0.1,0.1 0,0.2 0,0.3 -0.4,0.6 -0.8,0.9 -1.5,1.2 -2.2,0.9 -4.4,0.9 -6.7,0.2 -0.6,-0.2 -1.4,-0.5 -1.7,0.3 -0.2,0.7 1.2,2.1 1.7,2.3 0.8,0.2 1.5,-0.1 2.3,0 0.8,0.1 1.5,0.5 2.2,0.7 2.2,0.9 5.1,1 7.5,1.1 2.9,0.1 5.9,0.2 8.8,0.3 6,0.2 12,0.2 18,0.3 6,0 12.1,0 18.1,-0.1 3.1,-0.1 6.2,-0.2 9.2,-0.3 2.9,-0.1 5.9,-0.1 8.8,-0.5 4.6,-0.6 7.2,-4.2 8.2,-8.4 -0.3,0 -0.8,-0.5 -1.1,-2 z"
         id="path22"
         style="opacity:0.18000004" />
      <path
         d="m 59.5,7.3 c 0.5,-2 1.1,-3.6 3.1,-4.7 -0.7,0.1 -1.2,0.3 -1.7,0.8 -0.4,0.4 -0.7,0.8 -1.3,0.9 -1.3,0.2 -2.4,-1.1 -3.4,-1.8 1.6,4 2.5,2 3.3,4.8 0.5,-2 -0.8,-2.8 0,0 z"
         id="path24"
         style="opacity:0.13999999" />
      <path
         d="m 21.9,15.5 c 1.2,0.7 2,0.7 3.3,0.5 0.6,-0.1 1,0 1.6,0.1 0.7,0.2 1.4,0.1 2.1,0.1 3,0.1 5.7,2.6 7.2,5 -0.4,-1.7 -1.2,-3.6 -2.7,-4.6 -1,-0.7 -2.2,-0.8 -3.1,-1.6 -0.4,-0.3 -0.6,-0.8 -1.1,-1.1 0,0.1 0,0.1 0,0.2 0,0.2 0,0.4 0,0.6 0,2.2 -2.6,0.4 -3.7,0.6 -1,0.2 -1.6,0.5 -2.6,0 -0.4,-0.2 -0.8,-0.4 -1.2,-0.5 -1.4,-0.4 -3,0 -4.4,0.4 -0.6,0.2 -1.3,0.4 -1.8,0.9 -0.5,0.5 -0.8,1.3 -1.2,1.9 3,-3.5 7.3,-2.7 7.6,-2.5 z"
         id="path26"
         style="opacity:0.13999999" />
      <path
         d="m 89.1,38 c -0.4,-0.8 -1.1,-2.5 -2.3,-2 -0.3,0.1 -0.6,0.2 -0.9,0.4 -0.4,0.2 -0.4,0.4 -0.8,0.5 -0.6,0.1 -1.1,-0.7 -1.7,-0.5 -0.3,0.1 -0.4,0.3 -0.5,0.6 -0.2,0.2 -0.1,0.4 -0.4,0.3 -0.5,0 -1.2,-1.2 -1.5,-1.5 -0.2,0.8 -0.4,0.4 -0.5,-0.1 -0.1,-0.5 -0.2,-1.6 -0.5,-1.9 -0.2,-0.2 -0.1,-0.1 -0.3,-0.1 -0.2,0.1 -0.6,0.8 -0.8,1 -0.3,0.3 -0.7,0.5 -1,0.7 -0.3,0.2 -1.2,0.8 -1.6,0.4 -0.2,-0.3 0,-0.9 0,-1.2 -0.1,-0.6 -0.3,-0.9 -0.9,-1.1 -0.8,-0.2 -1.9,0.3 -2.5,0 -0.5,-0.3 -1,-0.9 -1.5,-1.3 -0.3,-0.2 -1.2,-1 -1.6,-0.5 -0.2,0.3 0,1 0.1,1.3 0,0.2 0.4,0.8 0.3,1 0.1,-0.2 -1.1,-1.7 -1.3,-1.9 -0.8,-1 -1.8,-2.1 -3,-2.3 -0.4,0.6 -0.3,1.2 -0.3,1.9 0,0.5 -0.2,0.6 -0.4,1 -0.4,0.6 -0.3,1.4 -0.4,2 -0.3,0.9 -0.7,1 -1.5,0.8 -0.5,-0.1 -0.6,-0.2 -0.9,0.4 -0.3,0.6 -0.4,1.2 -0.9,1.8 -0.8,-0.6 -1.8,-0.8 -2.7,-0.2 -0.7,0.5 -1.1,1.2 -1.8,1.6 -1,0.5 -2.1,0.6 -3.2,0.6 -0.6,0 -1.7,-0.1 -2.1,0.6 0.1,-1 -1.4,-2.4 -2.2,-2.7 -0.8,-0.3 -1.6,0.1 -2.4,0 -1,-0.1 -2.1,-0.4 -3,-0.8 -1.7,-0.7 -2.8,0.6 -4.3,1.4 -0.7,0.4 -1.5,1 -2.3,0.6 -0.7,-0.3 -1,-1.1 -1.7,-1.5 -0.1,0 -0.3,0.1 -0.4,0.1 -0.2,0 -0.2,-0.1 -0.3,-0.1 -0.7,-0.2 -1.3,0 -1.9,0.5 -1.1,0.9 -1.4,2 -3.1,1.7 -0.7,-0.1 -1.4,-0.3 -2.1,-0.6 -0.7,-0.3 -0.9,-0.4 -1.6,0.1 -0.7,0.5 -0.9,0.5 -1.7,0.1 -0.6,-0.4 -1,-0.4 -1.7,-0.2 -0.8,0.2 -1.5,0.3 -2.4,0.2 -0.5,-0.1 -1.6,-0.5 -2.1,-0.2 -0.7,0.3 -0.4,1.6 -1.1,2 -0.4,0.2 -0.8,0.1 -1.1,0.4 -0.5,0.3 -0.9,0.8 -1.4,1.2 -1.1,0.9 -2.2,0.7 -3.6,0.8 -0.5,0 -0.8,0.3 -1.3,0.4 -0.5,0.1 -1,0 -1.4,-0.1 -0.5,-0.1 -2.1,-0.8 -2,0.2 0.1,0.1 0.1,0.2 0.2,0.3 0.7,0.1 1.5,-0.2 2.2,-0.1 0.7,0.1 1.2,0.4 1.9,0.6 1.2,0.5 2.6,0.7 3.8,0.8 2.7,0.4 5.5,0.4 8.3,0.5 6.1,0.2 12.2,0.3 18.4,0.4 12.1,0.1 24.2,0 36.3,-0.6 2.9,-0.1 5.8,-0.2 8.2,-2.1 1.7,-1.4 2.8,-3.1 3.5,-5.2 C 89.2,38 89.2,38 89.1,38 c -1.7,-3.4 0.1,0 0,0 z"
         id="path28"
         style="opacity:0.2" />
    </g>
  </g>
  <g transform="translate(15,79)">
    <path
       d="M 4.6,10.6 6.1,7.3 8.2,10.2 C 8.5,10.6 9,10.7 9.4,10.4 9.8,10.1 9.9,9.5 9.6,9.2 L 7.6,6.3 11.2,6 C 11.7,6 12.1,5.5 12,5 12,4.5 11.5,4.2 11,4.2 L 7.5,4.5 9,1.3 C 9.2,0.9 9,0.3 8.6,0.1 8.2,-0.1 7.6,0.1 7.4,0.5 l -1.6,3.3 -2,-3 C 3.5,0.4 2.9,0.3 2.5,0.6 2.4,0.7 2.3,0.8 2.3,1 2.1,1.2 2.1,1.6 2.3,1.8 L 4.4,4.7 0.8,5.1 C 0.5,5.1 0.2,5.3 0.1,5.6 0,5.8 0,5.9 0,6.1 0,6.6 0.5,6.9 1,6.9 L 4.6,6.6 3,9.8 c -0.2,0.4 0,1 0.4,1.2 0.5,0.2 1,0 1.2,-0.4 z"
       style="fill:#47c0e3" />
  </g>
  <g transform="translate(30,86)">
    <path
       d="M 1.9,13 C 1.6,13 1.4,12.9 1.1,12.8 0.1,12.4 -0.3,11.2 0.2,10.2 L 4.4,1.1 C 4.8,0.1 6,-0.3 6.9,0.2 7.9,0.6 8.3,1.8 7.8,2.8 L 3.6,11.9 C 3.3,12.6 2.6,13 1.9,13 z"
       style="fill:#0062bf" />
  </g>
  <g transform="translate(42,51)">
    <polygon
       points="7.7,15.4 10.6,0 0,19.5 7.1,22.5 2.5,40 14.6,18.4 "
       style="fill:#ffdd15" />
  </g>
  <g transform="translate(55,80)">
    <path
       d="M 1.9,13 C 1.6,13 1.4,12.9 1.1,12.8 0.1,12.4 -0.3,11.2 0.2,10.2 L 4.4,1.1 C 4.8,0.1 6,-0.3 6.9,0.2 7.9,0.6 8.3,1.8 7.8,2.8 L 3.6,11.9 C 3.3,12.6 2.6,13 1.9,13 z"
       style="fill:#0062bf" />
  </g>
  <g transform="translate(66,88)">
    <path
       d="M 4.6,10.6 6.1,7.3 8.2,10.2 C 8.5,10.6 9,10.7 9.4,10.4 9.8,10.1 9.9,9.5 9.6,9.2 L 7.6,6.3 11.2,6 C 11.7,6 12.1,5.5 12,5 12,4.5 11.5,4.2 11,4.2 L 7.5,4.5 9,1.3 C 9.2,0.9 9,0.3 8.6,0.1 8.2,-0.1 7.6,0.1 7.4,0.5 l -1.6,3.3 -2,-3 C 3.5,0.4 2.9,0.3 2.5,0.6 2.4,0.7 2.3,0.8 2.3,1 2.1,1.2 2.1,1.6 2.3,1.8 L 4.4,4.7 0.8,5.1 C 0.5,5.1 0.2,5.3 0.1,5.6 0,5.8 0,5.9 0,6.1 0,6.6 0.5,6.9 1,6.9 L 4.6,6.6 3,9.8 c -0.2,0.4 0,1 0.4,1.2 0.5,0.2 1,0 1.2,-0.4 z"
       style="fill:#47c0e3" />
  </g>
  <g transform="translate(82,80)">
    <path
       d="M 1.9,13 C 1.6,13 1.4,12.9 1.1,12.8 0.1,12.4 -0.3,11.2 0.2,10.2 L 4.4,1.1 C 4.8,0.1 6,-0.3 6.9,0.2 7.9,0.6 8.3,1.8 7.8,2.8 L 3.6,11.9 C 3.3,12.6 2.6,13 1.9,13 z"
       style="fill:#0062bf" />
  </g>
</svg>
